<svg width="400" height="600" viewBox="0 0 400 600" fill="none" xmlns="http://www.w3.org/2000/svg">
  <rect width="400" height="600" rx="32" fill="#0F172A"/>
  <rect x="36" y="36" width="328" height="528" rx="24" fill="#1E293B"/>
  <path d="M122 192C122 180.954 130.954 172 142 172H258C269.046 172 278 180.954 278 192V316C278 327.046 269.046 336 258 336H142C130.954 336 122 327.046 122 316V192Z" fill="#334155"/>
  <path d="M150 294L183.237 253.438C188.124 247.475 197.29 247.553 202.075 253.599L228.466 286.937C233.347 293.103 242.804 293.058 247.626 286.845L278 247V316C278 327.046 269.046 336 258 336H142C130.954 336 122 327.046 122 316V294H150Z" fill="#38BDF8"/>
  <circle cx="235" cy="221" r="28" fill="#7DD3FC"/>
  <path d="M134 394C134 387.373 139.373 382 146 382H254C260.627 382 266 387.373 266 394C266 400.627 260.627 406 254 406H146C139.373 406 134 400.627 134 394Z" fill="#475569"/>
  <path d="M156 442C156 435.373 161.373 430 168 430H232C238.627 430 244 435.373 244 442C244 448.627 238.627 454 232 454H168C161.373 454 156 448.627 156 442Z" fill="#334155"/>
</svg>
